<?xml version="1.0" encoding="UTF-8"?>
<svg xmlns="http://www.w3.org/2000/svg" viewBox="0 0 32 32">
  <rect x="5.36" y="5.56" width="21.07" height="21.07" transform="translate(16.04 -6.53) rotate(45)" fill="#241d2b" stroke="#a892d6" stroke-width="1.6"/>
  <g transform="translate(9.258 9.97) scale(0.2107)">
    <path d="M0 0 C6.58837158 0.57198081 12.699472 3.32992303 18.83203125 5.6484375 C19.69441406 5.96296875 20.55679687 6.2775 21.4453125 6.6015625 C22.22406738 6.89369629 23.00282227 7.18583008 23.80517578 7.48681641 C26.29771373 8.06961004 27.61698861 7.87863456 30 7 C31.34978219 6.00711847 32.66170941 4.96131674 33.9375 3.875 C37.62612993 1.02438283 37.62612993 1.02438283 40.875 0.8125 C43.69649215 2.3892162 43.82628516 4.0657129 45 7 C47.54775306 7.89386164 47.54775306 7.89386164 50 8 C50 10.31 50 12.62 50 15 C10.4536274 15.50850924 10.4536274 15.50850924 -2 12 C-2 11.01 -2 10.02 -2 9 C-1.34 9 -0.68 9 0 9 C-0.185625 7.700625 -0.37125 6.40125 -0.5625 5.0625 C-0.87890625 2.84765625 -0.87890625 2.84765625 -1 1 C-0.67 0.67 -0.34 0.34 0 0 Z " fill="#F7F7F7" transform="translate(8,33)"/>
    <path d="M0 0 C4.52646015 0.41149638 8.41498716 1.05506659 12.6875 2.625 C16.17842358 3.85673724 18.42063884 4.36857927 22 3 C22.99 2.34 23.98 1.68 25 1 C25.99 1 26.98 1 28 1 C26.92744673 4.2176598 26.37040645 4.81317784 23.75 6.75 C22.87601563 7.42289063 22.87601563 7.42289063 21.984375 8.109375 C18.75512203 9.55872476 16.41436793 8.51254091 13.19580078 7.34619141 C11.18082966 6.57074041 9.1834147 5.76069544 7.1875 4.9375 C6.49462891 4.65583984 5.80175781 4.37417969 5.08789062 4.08398438 C3.39032376 3.39325027 1.69493688 2.69716272 0 2 C0 1.34 0 0.68 0 0 Z " fill="#E2E2E2" transform="translate(16,30)"/>
    <path d="M0 0 C0.66 0 1.32 0 2 0 C2.3125 2.3125 2.3125 2.3125 2 5 C0.125 6.9375 0.125 6.9375 -3 8 C-8.21091092 7.57287615 -13.26054612 6.21174514 -18 4 C-17.34 3.01 -16.68 2.02 -16 1 C-12.23232357 0.70449597 -8.91669379 1.01365676 -5.1875 1.625 C-3.6096875 1.810625 -3.6096875 1.810625 -2 2 C-1.34 1.34 -0.68 0.68 0 0 Z " fill="#EAEAEA" transform="translate(39,22)"/>
    <path d="M0 0 C3.5625 0.3125 3.5625 0.3125 5.5 1.8125 C5.850625 2.3075 6.20125 2.8025 6.5625 3.3125 C5.9025 3.3125 5.2425 3.3125 4.5625 3.3125 C4.8925 4.3025 5.2225 5.2925 5.5625 6.3125 C4.10234709 6.03008359 2.64440207 5.73623386 1.1875 5.4375 C0.37539063 5.27507813 -0.43671875 5.11265625 -1.2734375 4.9453125 C-3.4375 4.3125 -3.4375 4.3125 -5.4375 2.3125 C-3.4375 0.3125 -3.4375 0.3125 0 0 Z " fill="#E1E1E1" transform="translate(26.4375,22.6875)"/>
    <path d="M0 0 C-0.57344937 2.86724686 -0.8614515 3.8614515 -3 6 C-6.125 5.625 -6.125 5.625 -9 5 C-8.67 4.01 -8.34 3.02 -8 2 C-5.10441559 0.5522078 -3.25811062 0 0 0 Z " fill="#E0E0E0" transform="translate(40,16)"/>
    <path d="M0 0 C7.625 0.875 7.625 0.875 11 2 C11.6875 4.0625 11.6875 4.0625 12 6 C6 4 6 4 0 2 C0 1.34 0 0.68 0 0 Z " fill="#E0E0E0" transform="translate(16,30)"/>
    <path d="M0 0 C5.75 0.875 5.75 0.875 8 2 C7.67 2.99 7.34 3.98 7 5 C4.625 4.75 4.625 4.75 2 4 C0.6875 1.9375 0.6875 1.9375 0 0 Z " fill="#EFEFEF" transform="translate(27,33)"/>
    <path d="M0 0 C0.99 0.33 1.98 0.66 3 1 C2.01 2.485 2.01 2.485 1 4 C-1.97 3.505 -1.97 3.505 -5 3 C-2 1 -2 1 0 0 Z " fill="#373737" transform="translate(36,38)"/>
    <path d="M0 0 C2 1 2 1 2 1 Z " fill="#000000" transform="translate(39,9)"/>
    <path d="" fill="#010101" transform="translate(0,0)"/>
  </g>
</svg>
